<svg width="81" height="23" viewBox="0 0 81 23" fill="none" xmlns="http://www.w3.org/2000/svg">
<rect x="0.444336" width="22.0111" height="22.0111" rx="11.0056" fill="#50AB27"/>
<path d="M17.3457 10.5142C16.6942 10.5142 16.0694 10.2554 15.6087 9.79472C15.148 9.33402 14.8891 8.70917 14.8891 8.05764C14.8891 7.92734 14.8374 7.80237 14.7452 7.71023C14.6531 7.61809 14.5281 7.56632 14.3978 7.56632C13.7463 7.56632 13.1214 7.30751 12.6607 6.8468C12.2 6.3861 11.9412 5.76126 11.9412 5.10973C11.9412 4.97942 11.8895 4.85445 11.7973 4.76231C11.7052 4.67017 11.5802 4.61841 11.4499 4.61841C10.1866 4.61841 8.95175 4.99301 7.90139 5.69484C6.85103 6.39667 6.03237 7.3942 5.54894 8.5613C5.06551 9.7284 4.93902 11.0126 5.18547 12.2516C5.43192 13.4906 6.04024 14.6287 6.9335 15.522C7.82676 16.4152 8.96484 17.0235 10.2038 17.27C11.4428 17.5164 12.7271 17.3899 13.8942 16.9065C15.0613 16.4231 16.0588 15.6044 16.7606 14.5541C17.4625 13.5037 17.8371 12.2688 17.8371 11.0056C17.8371 10.8753 17.7853 10.7503 17.6931 10.6581C17.601 10.566 17.476 10.5142 17.3457 10.5142ZM8.22623 9.25585C8.3294 9.15304 8.46072 9.0831 8.60361 9.05487C8.7465 9.02664 8.89455 9.04139 9.02907 9.09724C9.16358 9.1531 9.27853 9.24756 9.3594 9.3687C9.44027 9.48984 9.48343 9.63223 9.48343 9.77788C9.48343 9.92353 9.44027 10.0659 9.3594 10.1871C9.27853 10.3082 9.16358 10.4027 9.02907 10.4585C8.89455 10.5144 8.7465 10.5291 8.60361 10.5009C8.46072 10.4727 8.3294 10.4027 8.22623 10.2999C8.15752 10.2314 8.10301 10.1501 8.06581 10.0605C8.02862 9.97092 8.00947 9.87487 8.00947 9.77788C8.00947 9.68088 8.02862 9.58484 8.06581 9.49526C8.10301 9.40567 8.15752 9.32432 8.22623 9.25585ZM9.7616 13.7391C9.65843 13.842 9.52711 13.9119 9.38422 13.9401C9.24133 13.9683 9.09328 13.9536 8.95877 13.8977C8.82425 13.8419 8.7093 13.7474 8.62843 13.6263C8.54757 13.5052 8.50441 13.3628 8.50441 13.2171C8.50441 13.0715 8.54757 12.9291 8.62843 12.8079C8.7093 12.6868 8.82425 12.5923 8.95877 12.5365C9.09328 12.4806 9.24133 12.4659 9.38422 12.4941C9.52711 12.5223 9.65843 12.5923 9.7616 12.6951C9.83004 12.7636 9.88431 12.845 9.92129 12.9345C9.95827 13.024 9.97725 13.1199 9.97714 13.2168C9.97702 13.3136 9.95782 13.4095 9.92063 13.4989C9.88343 13.5883 9.82898 13.6695 9.76038 13.7379L9.7616 13.7391ZM11.1741 11.2825C11.0713 11.1794 11.0014 11.0481 10.9732 10.9052C10.9449 10.7623 10.9597 10.6142 11.0155 10.4797C11.0714 10.3452 11.1659 10.2302 11.287 10.1494C11.4081 10.0685 11.5505 10.0253 11.6962 10.0253C11.8418 10.0253 11.9842 10.0685 12.1054 10.1494C12.2265 10.2302 12.321 10.3452 12.3768 10.4797C12.4327 10.6142 12.4474 10.7623 12.4192 10.9052C12.3909 11.0481 12.321 11.1794 12.2182 11.2825C12.1497 11.3512 12.0682 11.4056 11.9786 11.4427C11.889 11.4798 11.7929 11.4988 11.6959 11.4987C11.5989 11.4986 11.5029 11.4793 11.4134 11.442C11.3238 11.4047 11.2425 11.3501 11.1741 11.2813V11.2825ZM13.6922 14.2305C13.589 14.3333 13.4577 14.4032 13.3148 14.4314C13.1719 14.4597 13.0238 14.4449 12.8893 14.3891C12.7548 14.3332 12.6399 14.2388 12.559 14.1176C12.4781 13.9965 12.435 13.8541 12.435 13.7084C12.435 13.5628 12.4781 13.4204 12.559 13.2993C12.6399 13.1781 12.7548 13.0837 12.8893 13.0278C13.0238 12.9719 13.1719 12.9572 13.3148 12.9854C13.4577 13.0137 13.589 13.0836 13.6922 13.1864C13.7606 13.2549 13.8149 13.3363 13.8518 13.4258C13.8888 13.5153 13.9078 13.6112 13.9077 13.7081C13.9076 13.8049 13.8884 13.9008 13.8512 13.9902C13.814 14.0796 13.7595 14.1609 13.6909 14.2292L13.6922 14.2305Z" fill="white"/>
<path d="M37.4607 16.1456C36.742 16.1456 36.0793 16.0243 35.4727 15.7816C34.8753 15.5296 34.3527 15.1796 33.9047 14.7316C33.466 14.2743 33.1253 13.7376 32.8827 13.1216C32.64 12.4963 32.5187 11.8149 32.5187 11.0776C32.5187 10.3589 32.6447 9.69628 32.8967 9.08961C33.1487 8.47362 33.5033 7.94162 33.9607 7.49361C34.418 7.03628 34.9547 6.68162 35.5707 6.42962C36.1867 6.17761 36.854 6.05161 37.5727 6.05161C38.0393 6.05161 38.4967 6.11695 38.9447 6.24761C39.402 6.36895 39.8173 6.55095 40.1907 6.79361C40.5733 7.03628 40.9 7.32561 41.1707 7.66162L39.8547 9.11762C39.6307 8.89361 39.3973 8.70228 39.1547 8.54361C38.9213 8.37562 38.6693 8.24962 38.3987 8.16562C38.1373 8.07228 37.8573 8.02561 37.5587 8.02561C37.1573 8.02561 36.7793 8.10028 36.4247 8.24961C36.0793 8.39895 35.776 8.60895 35.5147 8.87962C35.2533 9.14095 35.0433 9.46295 34.8847 9.84561C34.7353 10.2189 34.6607 10.6343 34.6607 11.0916C34.6607 11.5583 34.7353 11.9829 34.8847 12.3656C35.034 12.7389 35.244 13.0609 35.5147 13.3316C35.7853 13.5929 36.1073 13.7983 36.4807 13.9476C36.8633 14.0876 37.2833 14.1576 37.7407 14.1576C38.0393 14.1576 38.3287 14.1156 38.6087 14.0316C38.8887 13.9476 39.1453 13.8309 39.3787 13.6816C39.6213 13.5323 39.836 13.3596 40.0227 13.1636L41.0447 14.8016C40.8207 15.0536 40.5173 15.2823 40.1347 15.4876C39.7613 15.6929 39.3413 15.8563 38.8747 15.9776C38.408 16.0896 37.9367 16.1456 37.4607 16.1456ZM45.979 16.1456C45.223 16.1456 44.5463 15.9823 43.949 15.6556C43.361 15.3196 42.8943 14.8623 42.549 14.2836C42.213 13.7049 42.045 13.0423 42.045 12.2956C42.045 11.5489 42.213 10.8909 42.549 10.3216C42.8943 9.74295 43.361 9.28561 43.949 8.94962C44.5463 8.61361 45.223 8.44561 45.979 8.44561C46.7257 8.44561 47.393 8.61361 47.981 8.94962C48.5783 9.28561 49.045 9.74295 49.381 10.3216C49.717 10.8909 49.885 11.5489 49.885 12.2956C49.885 13.0423 49.717 13.7049 49.381 14.2836C49.045 14.8623 48.5783 15.3196 47.981 15.6556C47.393 15.9823 46.7257 16.1456 45.979 16.1456ZM45.979 14.4096C46.343 14.4096 46.6697 14.3209 46.959 14.1436C47.2483 13.9569 47.4723 13.7049 47.631 13.3876C47.799 13.0609 47.883 12.6969 47.883 12.2956C47.883 11.8849 47.799 11.5209 47.631 11.2036C47.4723 10.8769 47.2483 10.6249 46.959 10.4476C46.6697 10.2609 46.343 10.1676 45.979 10.1676C45.6057 10.1676 45.2743 10.2609 44.985 10.4476C44.6957 10.6343 44.467 10.8863 44.299 11.2036C44.131 11.5209 44.0517 11.8849 44.061 12.2956C44.0517 12.6969 44.131 13.0609 44.299 13.3876C44.467 13.7049 44.6957 13.9569 44.985 14.1436C45.2743 14.3209 45.6057 14.4096 45.979 14.4096ZM54.8247 16.1456C54.0687 16.1456 53.3921 15.9823 52.7947 15.6556C52.2067 15.3196 51.7401 14.8623 51.3947 14.2836C51.0587 13.7049 50.8907 13.0423 50.8907 12.2956C50.8907 11.5489 51.0587 10.8909 51.3947 10.3216C51.7401 9.74295 52.2067 9.28561 52.7947 8.94962C53.3921 8.61361 54.0687 8.44561 54.8247 8.44561C55.5714 8.44561 56.2387 8.61361 56.8267 8.94962C57.4241 9.28561 57.8907 9.74295 58.2267 10.3216C58.5627 10.8909 58.7307 11.5489 58.7307 12.2956C58.7307 13.0423 58.5627 13.7049 58.2267 14.2836C57.8907 14.8623 57.4241 15.3196 56.8267 15.6556C56.2387 15.9823 55.5714 16.1456 54.8247 16.1456ZM54.8247 14.4096C55.1887 14.4096 55.5154 14.3209 55.8047 14.1436C56.0941 13.9569 56.3181 13.7049 56.4767 13.3876C56.6447 13.0609 56.7287 12.6969 56.7287 12.2956C56.7287 11.8849 56.6447 11.5209 56.4767 11.2036C56.3181 10.8769 56.0941 10.6249 55.8047 10.4476C55.5154 10.2609 55.1887 10.1676 54.8247 10.1676C54.4514 10.1676 54.1201 10.2609 53.8307 10.4476C53.5414 10.6343 53.3127 10.8863 53.1447 11.2036C52.9767 11.5209 52.8974 11.8849 52.9067 12.2956C52.8974 12.6969 52.9767 13.0609 53.1447 13.3876C53.3127 13.7049 53.5414 13.9569 53.8307 14.1436C54.1201 14.3209 54.4514 14.4096 54.8247 14.4096ZM62.1164 13.7796L61.5284 12.1416L65.0284 8.59961H67.6464L62.1164 13.7796ZM60.2264 16.0056V5.64562H62.2144V16.0056H60.2264ZM65.2384 16.0056L62.5784 12.6596L63.9784 11.5396L67.6324 16.0056H65.2384ZM68.8983 16.0056V8.59961H70.8863V16.0056H68.8983ZM69.8783 7.07362C69.4957 7.07362 69.197 6.98028 68.9823 6.79361C68.7677 6.60695 68.6603 6.34095 68.6603 5.99561C68.6603 5.67828 68.7677 5.42161 68.9823 5.22561C69.2063 5.02028 69.505 4.91761 69.8783 4.91761C70.261 4.91761 70.5597 5.01561 70.7743 5.21161C70.989 5.39828 71.0963 5.65961 71.0963 5.99561C71.0963 6.32228 70.9843 6.58361 70.7603 6.77961C70.5457 6.97561 70.2517 7.07362 69.8783 7.07362ZM76.5236 16.1456C75.721 16.1456 75.021 15.9823 74.4236 15.6556C73.8263 15.3289 73.3596 14.8809 73.0236 14.3116C72.6876 13.7423 72.5196 13.0889 72.5196 12.3516C72.5196 11.7823 72.613 11.2596 72.7996 10.7836C72.9863 10.3076 73.2476 9.89695 73.5836 9.55161C73.9196 9.19695 74.3163 8.92628 74.7736 8.73961C75.2403 8.54361 75.7443 8.44561 76.2856 8.44561C76.7896 8.44561 77.2563 8.53895 77.6856 8.72561C78.115 8.90295 78.4836 9.15961 78.7916 9.49561C79.109 9.82228 79.3516 10.2096 79.5196 10.6576C79.6876 11.1056 79.7623 11.5956 79.7436 12.1276L79.7296 12.7436H73.7796L73.4576 11.5256H78.0916L77.8676 11.7776V11.4696C77.849 11.2176 77.765 10.9889 77.6156 10.7836C77.4756 10.5783 77.2936 10.4196 77.0696 10.3076C76.8456 10.1956 76.5936 10.1396 76.3136 10.1396C75.903 10.1396 75.553 10.2189 75.2636 10.3776C74.9836 10.5363 74.769 10.7696 74.6196 11.0776C74.4703 11.3856 74.3956 11.7589 74.3956 12.1976C74.3956 12.6456 74.489 13.0329 74.6756 13.3596C74.8716 13.6863 75.1423 13.9429 75.4876 14.1296C75.8423 14.3069 76.2576 14.3956 76.7336 14.3956C77.0603 14.3956 77.359 14.3443 77.6296 14.2416C77.9003 14.1389 78.1896 13.9616 78.4976 13.7096L79.4496 15.0396C79.179 15.2823 78.8803 15.4876 78.5536 15.6556C78.227 15.8143 77.891 15.9356 77.5456 16.0196C77.2003 16.1036 76.8596 16.1456 76.5236 16.1456Z" fill="white"/>
</svg>
